<svg width="13" height="10" viewBox="0 0 13 10" fill="none" xmlns="http://www.w3.org/2000/svg">
<path d="M1.91016 4.01367V9H0.826172V2.66016H1.85156L1.91016 4.01367ZM1.65234 5.58984L1.20117 5.57227C1.20508 5.13867 1.26953 4.73828 1.39453 4.37109C1.51953 4 1.69531 3.67773 1.92188 3.4043C2.14844 3.13086 2.41797 2.91992 2.73047 2.77148C3.04688 2.61914 3.39648 2.54297 3.7793 2.54297C4.0918 2.54297 4.37305 2.58594 4.62305 2.67188C4.87305 2.75391 5.08594 2.88672 5.26172 3.07031C5.44141 3.25391 5.57812 3.49219 5.67188 3.78516C5.76562 4.07422 5.8125 4.42773 5.8125 4.8457V9H4.72266V4.83398C4.72266 4.50195 4.67383 4.23633 4.57617 4.03711C4.47852 3.83398 4.33594 3.6875 4.14844 3.59766C3.96094 3.50391 3.73047 3.45703 3.45703 3.45703C3.1875 3.45703 2.94141 3.51367 2.71875 3.62695C2.5 3.74023 2.31055 3.89648 2.15039 4.0957C1.99414 4.29492 1.87109 4.52344 1.78125 4.78125C1.69531 5.03516 1.65234 5.30469 1.65234 5.58984ZM8.41992 8.0918H8.53125C9.15625 8.0918 9.66406 8.00391 10.0547 7.82812C10.4453 7.65234 10.7461 7.41602 10.957 7.11914C11.168 6.82227 11.3125 6.48828 11.3906 6.11719C11.4688 5.74219 11.5078 5.35742 11.5078 4.96289V3.65625C11.5078 3.26953 11.4629 2.92578 11.373 2.625C11.2871 2.32422 11.166 2.07227 11.0098 1.86914C10.8574 1.66602 10.6836 1.51172 10.4883 1.40625C10.293 1.30078 10.0859 1.24805 9.86719 1.24805C9.61719 1.24805 9.39258 1.29883 9.19336 1.40039C8.99805 1.49805 8.83203 1.63672 8.69531 1.81641C8.5625 1.99609 8.46094 2.20703 8.39062 2.44922C8.32031 2.69141 8.28516 2.95508 8.28516 3.24023C8.28516 3.49414 8.31641 3.74023 8.37891 3.97852C8.44141 4.2168 8.53711 4.43164 8.66602 4.62305C8.79492 4.81445 8.95508 4.9668 9.14648 5.08008C9.3418 5.18945 9.57031 5.24414 9.83203 5.24414C10.0742 5.24414 10.3008 5.19727 10.5117 5.10352C10.7266 5.00586 10.916 4.875 11.0801 4.71094C11.248 4.54297 11.3809 4.35352 11.4785 4.14258C11.5801 3.93164 11.6387 3.71094 11.6543 3.48047H12.1699C12.1699 3.80469 12.1055 4.125 11.9766 4.44141C11.8516 4.75391 11.6758 5.03906 11.4492 5.29688C11.2227 5.55469 10.957 5.76172 10.6523 5.91797C10.3477 6.07031 10.0156 6.14648 9.65625 6.14648C9.23438 6.14648 8.86914 6.06445 8.56055 5.90039C8.25195 5.73633 7.99805 5.51758 7.79883 5.24414C7.60352 4.9707 7.45703 4.66602 7.35938 4.33008C7.26562 3.99023 7.21875 3.64648 7.21875 3.29883C7.21875 2.89258 7.27539 2.51172 7.38867 2.15625C7.50195 1.80078 7.66992 1.48828 7.89258 1.21875C8.11523 0.945312 8.39062 0.732422 8.71875 0.580078C9.05078 0.427734 9.43359 0.351562 9.86719 0.351562C10.3555 0.351562 10.7715 0.449219 11.1152 0.644531C11.459 0.839844 11.7383 1.10156 11.9531 1.42969C12.1719 1.75781 12.332 2.12695 12.4336 2.53711C12.5352 2.94727 12.5859 3.36914 12.5859 3.80273V4.19531C12.5859 4.63672 12.5566 5.08594 12.498 5.54297C12.4434 5.99609 12.3359 6.42969 12.1758 6.84375C12.0195 7.25781 11.791 7.62891 11.4902 7.95703C11.1895 8.28125 10.7969 8.53906 10.3125 8.73047C9.83203 8.91797 9.23828 9.01172 8.53125 9.01172H8.41992V8.0918Z" fill="#67774E"/>
</svg>
